<svg id="Layer_1" data-name="Layer 1" xmlns="http://www.w3.org/2000/svg" xmlns:xlink="http://www.w3.org/1999/xlink" viewBox="0 0 3000 2000"><defs><style>.cls-1{fill:url(#linear-gradient);}.cls-2{fill:#cdf1fc;}.cls-3{fill:#a4e1f4;}.cls-4{fill:#f97923;}.cls-5{fill:#e86a13;}.cls-6{fill:#e46b17;}.cls-7{fill:#edf0ef;}.cls-8{fill:#dee1de;opacity:0.83;}.cls-9{fill:#022fa0;}.cls-10{fill:#e85569;}.cls-11{fill:#c94f63;opacity:0.46;}.cls-12{fill:#bc3c5b;}.cls-13{fill:#0071bc;}.cls-14{fill:#04659b;}.cls-15{fill:#026399;}.cls-16{fill:#a01e3a;}.cls-17{fill:#f5c256;}.cls-18,.cls-19{fill:#ea9d03;}.cls-18{opacity:0.72;}.cls-20{fill:#15aa55;}.cls-21{fill:#0f9344;opacity:0.79;}.cls-22{fill:#009844;}.cls-23{fill:#161111;}.cls-24{fill:#b5b5b5;}.cls-25{fill:#cdcdcb;}.cls-26{fill:orange;}.cls-27{opacity:0.85;}.cls-28{fill:#923509;}.cls-29{fill:#eb860d;}.cls-30{fill:#c6c6c6;}.cls-31{fill:#fdce14;opacity:0.65;}.cls-32{fill:#fffbd6;}.cls-33{fill:#1d1d1b;}.cls-34{fill:#070707;}.cls-35{fill:#262625;}.cls-36{fill:#fbba13;}.cls-37,.cls-45{fill:#fff;}.cls-37{opacity:0.1;}.cls-38{fill:#82b146;}.cls-39{fill:#7e9e3e;}.cls-40{fill:#d0d1e9;}.cls-41{fill:#a7a7d3;}.cls-42{fill:#788587;}.cls-43{fill:#83c8d3;}.cls-44{fill:#2c2e3a;}</style><linearGradient id="linear-gradient" x1="1500" x2="1500" y2="2000" gradientTransform="translate(3000 2000) rotate(-180)" gradientUnits="userSpaceOnUse"><stop offset="0" stop-color="#fdfdfd"/><stop offset="0.21" stop-color="#f5fbfd"/><stop offset="0.53" stop-color="#dff6fe"/><stop offset="0.92" stop-color="#bceeff"/><stop offset="1" stop-color="#b4ecff"/></linearGradient></defs><rect class="cls-1" width="3000" height="2000" transform="translate(3000 2000) rotate(180)"/><path class="cls-2" d="M2715,784.5h0c0-113.86-124.72-206.17-278.57-206.17h-58.11c27.18-17.41,44.4-43.11,44.4-71.8h0c0-52.45-57.45-95-128.31-95H2101c19.56-12.46,32-30.88,32-51.48,0-37.53-41.11-67.95-91.81-67.95H1555.57c-50.71,0-91.81,30.42-91.81,67.95s41.1,68,91.81,68H1737.4c33.86,17.09,56.1,45.86,56.1,78.49h0c0,28.69-17.22,54.39-44.4,71.8h-299c-153.85,0-278.57,92.31-278.57,206.17h0c0,113.86,124.72,206.17,278.57,206.17H1053.88c-70.87,0-128.32,42.51-128.32,95s57.45,95,128.32,95H892.45c-176.36,0-322.76,94.63-351.82,219H484.11c-110,0-199.12,66-199.12,147.36v14.93c0,81.38,89.15,147.36,199.12,147.36H2357.85c197.25,0,357.16-118.35,357.16-264.33h0c0-146-159.91-264.33-357.16-264.33H1732.58c70.87,0,128.32-42.51,128.32-95s-57.45-95-128.32-95h703.86C2590.29,990.67,2715,898.36,2715,784.5Z"/><circle class="cls-2" cx="1127.09" cy="360.09" r="73.4" transform="translate(363.09 1263.58) rotate(-67.5)"/><ellipse class="cls-3" cx="1500" cy="1697.72" rx="1204.52" ry="90.81"/><path class="cls-2" d="M776.78,492a3.1,3.1,0,0,0,0-.61c-1.86-11.2-11.63-47.51-59.89-44.53,0,0-2.15-73.28-89.46-41.59,0,0-74-83.61-120.9,12.35,0,0-99.5-41.08-103.38,73a8.6,8.6,0,0,0,.07,1.35Z"/><path class="cls-4" d="M701.87,1593.2v-19.6H1707.92c51.7,0,93.62,28.09,93.62,62.74v.39c0,34.65-41.92,62.75-93.62,62.75h-1006v-19.6C733.17,1635.65,701.87,1593.2,701.87,1593.2Z"/><path class="cls-5" d="M1487.84,1573.6h-72.71c30,11.78,50.5,35.42,50.5,62.72v.44c0,27.29-20.52,50.93-50.5,62.72h72.71c51.7,0,93.62-28.1,93.62-62.75v-.39C1581.46,1601.69,1539.54,1573.6,1487.84,1573.6Z"/><path class="cls-5" d="M1743.62,1636.76v-.44c0-27.3-20.51-50.94-50.5-62.72h-46.33c30,11.78,50.5,35.42,50.5,62.72v.44c0,27.29-20.51,50.93-50.5,62.72h46.33C1723.11,1687.69,1743.62,1664.05,1743.62,1636.76Z"/><path class="cls-6" d="M701.87,1573.6h493.35c41.34,0,74.86,22.46,74.86,50.17v25.54c0,27.7-33.52,50.17-74.86,50.17H701.87v-19.6c31.3-44.23,0-86.68,0-86.68Z"/><path class="cls-7" d="M1190,1593.2c28.47,0,51.55,15.46,51.55,34.54v17.59c0,19.08-23.08,34.55-51.55,34.55H701.87c27.39-43.34,0-86.68,0-86.68Z"/><path class="cls-8" d="M701.87,1593.2H1190c28.47,0,51.55,15.46,51.55,34.54v8.8H714A93.12,93.12,0,0,0,701.87,1593.2Z"/><path class="cls-9" d="M1174.13,1623.77s-5,4.15-5.58,13.7-7.44,20.77-7.44,20.77l-16.11-10.8-17.36,10.8s5.58-13.29,5.58-20.35,8.68-14.12,8.68-14.12Z"/><path class="cls-10" d="M691.66,1267.6v-33.35h843.8c43.37,0,78.52,47.81,78.52,106.79v.66c0,59-35.15,106.79-78.52,106.79H691.66v-33.36C717.92,1339.86,691.66,1267.6,691.66,1267.6Z"/><path class="cls-11" d="M1350.87,1234.25h-61c25.15,20.06,42.35,60.29,42.35,106.75v.74c0,46.46-17.2,86.69-42.35,106.75h61c43.37,0,78.52-47.81,78.52-106.79V1341C1429.39,1282.06,1394.24,1234.25,1350.87,1234.25Z"/><path class="cls-12" d="M691.66,1234.25h413.79c34.67,0,62.78,38.23,62.78,85.39v43.46c0,47.16-28.11,85.39-62.78,85.39H691.66v-33.36c26.26-75.27,0-147.53,0-147.53Z"/><path class="cls-7" d="M1101,1267.6c23.87,0,43.23,26.33,43.23,58.8v29.94c0,32.47-19.36,58.79-43.23,58.79H691.66c23-73.76,0-147.53,0-147.53Z"/><path class="cls-8" d="M691.66,1267.6H1101c23.87,0,43.23,26.33,43.23,58.8v15H701.86C701.4,1299.07,691.66,1267.6,691.66,1267.6Z"/><path class="cls-13" d="M1864.72,1468.09v-19.6h-1006c-51.71,0-69.89,31.31-69.89,66v1.64c0,34.65,18.18,58.28,69.89,58.28H1864.72v-19.6C1833.42,1510.54,1864.72,1468.09,1864.72,1468.09Z"/><path class="cls-14" d="M1078.75,1448.49h72.71c-30,11.78-50.5,35.42-50.5,62.72v.44c0,27.29,20.51,50.93,50.5,62.72h-72.71c-51.71,0-93.62-28.1-93.62-62.75v-.39C985.13,1476.58,1027,1448.49,1078.75,1448.49Z"/><path class="cls-15" d="M1864.72,1448.49H1371.37c-41.35,0-74.86,22.46-74.86,50.17v25.54c0,27.71,33.51,50.17,74.86,50.17h493.35v-19.6c-31.3-44.23,0-86.68,0-86.68Z"/><path class="cls-7" d="M1376.64,1468.09c-28.47,0-51.55,15.46-51.55,34.54v17.59c0,19.08,23.08,34.55,51.55,34.55h488.08c-27.39-43.34,0-86.68,0-86.68Z"/><path class="cls-8" d="M1864.72,1468.09H1376.64c-28.47,0-51.55,15.46-51.55,34.54v8.8h527.47A93.2,93.2,0,0,1,1864.72,1468.09Z"/><path class="cls-16" d="M1392.46,1498.66s5,4.15,5.58,13.71,7.44,20.77,7.44,20.77l16.11-10.8,17.35,10.8s-5.57-13.3-5.57-20.36-8.68-14.12-8.68-14.12Z"/><path class="cls-17" d="M1652.94,1095.69v-25.55H711.8c-48.37,0-87.58,36.62-87.58,81.8v.51c0,45.18,39.21,81.8,87.58,81.8h941.14V1208.7C1623.66,1151,1652.94,1095.69,1652.94,1095.69Z"/><path class="cls-18" d="M917.68,1070.14h68c-28.05,15.36-47.24,46.18-47.24,81.77v.57c0,35.59,19.19,66.41,47.24,81.77h-68c-48.37,0-87.58-36.63-87.58-81.8v-.51C830.1,1106.76,869.31,1070.14,917.68,1070.14Z"/><path class="cls-19" d="M1652.94,1070.14H1191.42c-38.67,0-70,29.28-70,65.41v33.29c0,36.13,31.36,65.41,70,65.41h461.52V1208.7c-29.28-57.66,0-113,0-113Z"/><path class="cls-7" d="M1196.35,1095.69c-26.63,0-48.22,20.17-48.22,45v22.93c0,24.87,21.59,45,48.22,45h456.59c-25.62-56.51,0-113,0-113Z"/><path class="cls-8" d="M1652.94,1095.69H1196.35c-26.63,0-48.22,20.17-48.22,45v11.46h493.44C1642.08,1119.79,1652.94,1095.69,1652.94,1095.69Z"/><path class="cls-16" d="M1211.15,1135.55s4.64,5.41,5.22,17.87,7,27.08,7,27.08l15.07-14.08,16.24,14.08s-5.22-17.33-5.22-26.54-8.12-18.41-8.12-18.41Z"/><path class="cls-20" d="M1608.41,954.16V932.58H813.79c-40.83,0-73.94,30.93-73.94,69.07v.43c0,38.14,33.11,69.06,73.94,69.06h794.62v-21.57C1583.68,1000.89,1608.41,954.16,1608.41,954.16Z"/><path class="cls-21" d="M987.62,932.58h57.43c-23.68,13-39.88,39-39.88,69v.49c0,30,16.2,56.06,39.88,69H987.62c-40.84,0-73.94-30.92-73.94-69.06v-.43C913.68,963.51,946.78,932.58,987.62,932.58Z"/><path class="cls-22" d="M1608.41,932.58H1218.74c-32.65,0-59.12,24.73-59.12,55.23v28.11c0,30.5,26.47,55.22,59.12,55.22h389.67v-21.57c-24.73-48.68,0-95.41,0-95.41Z"/><path class="cls-7" d="M1222.9,954.16c-22.48,0-40.71,17-40.71,38v19.36c0,21,18.23,38,40.71,38h385.51c-21.64-47.71,0-95.41,0-95.41Z"/><path class="cls-8" d="M1608.41,954.16H1222.9c-22.48,0-40.71,17-40.71,38v9.68H1598.8A132.74,132.74,0,0,1,1608.41,954.16Z"/><path class="cls-9" d="M1235.4,987.81s3.92,4.57,4.41,15.09,5.87,22.86,5.87,22.86l12.73-11.89,13.7,11.89s-4.4-14.63-4.4-22.41-6.85-15.54-6.85-15.54Z"/><path class="cls-23" d="M2002.78,1310.2l19.82.29a48,48,0,0,0,48.68-47.34h0a20.27,20.27,0,0,0-20-20.59l-75.25-1.12a20.26,20.26,0,0,0-20.54,20h0A48,48,0,0,0,2002.78,1310.2Z"/><path class="cls-24" d="M1919.19,1205.09l190.1,2.84a29.64,29.64,0,0,1,29.2,30.08h0a29.64,29.64,0,0,1-30.08,29.21l-190.11-2.84a29.64,29.64,0,0,1-29.2-30.08h0A29.65,29.65,0,0,1,1919.19,1205.09Z"/><path class="cls-25" d="M1918,1200.76l192.6,2.88a28.41,28.41,0,0,1,28,28.83l0,2.49a28.41,28.41,0,0,1-28.82,28l-192.6-2.88a28.4,28.4,0,0,1-28-28.82l0-2.49A28.4,28.4,0,0,1,1918,1200.76Z"/><path class="cls-24" d="M1889.13,1231.74l.06-3.52a27.85,27.85,0,0,1,28.24-27.46l74.84,1.11c1.3,2.24,2.77,4.53,4.45,6.89,0,0-21.23,19.83-8.83,52.35l-71.34-1.06A27.88,27.88,0,0,1,1889.13,1231.74Z"/><path class="cls-26" d="M1738.76,791.45C1741.2,627.57,1868,496.57,2022,498.87s276.81,137,274.36,300.9c-1.43,95.39-45,179.61-111.52,232.91-23,18.4-36.74,47-37.2,77.6l-.69,46.17-266.09-4,.65-43.4c.46-31-12.8-60.33-35.72-79.39C1779.42,974.51,1737.32,888.05,1738.76,791.45Z"/><g class="cls-27"><path class="cls-28" d="M2045.46,998.17l-58.27-.18-2.33,156-11-.16L1976.17,998l-52-.16-1.42-1c-1-.73-25.28-18.18-25.42-40.89-.07-12,6.46-22.94,19.43-32.39,13.52-9.86,26.62-13.12,38.88-9.66,21.23,5.94,31.45,29.87,31.87,30.88l-.17,42.22,58.19.19.44-50.83,1.14-1.47c.73-.94,18.06-22.94,40.47-22.6h0c12.37.2,23.52,7,33.12,20.27,10.64,14.64,14.12,28.17,10.36,40.2-5.62,18-25.42,25.08-26.26,25.37l-48.37.15-1.34,156.85-11-.1ZM1976.92,948c-1.94-4.06-10.16-19.59-24.22-23.53-8.86-2.5-18.77.19-29.44,8-9.92,7.22-14.92,15.08-14.89,23.34.07,14.48,14.88,27.35,19.45,31l48.52.15Zm143.69,21.32c2.63-8.5-.33-18.7-8.77-30.35-7.46-10.27-15.65-15.56-24.34-15.71h-.07c-14.15-.21-26.69,12.7-30.45,17l-.4,46.92,45.43.15C2105.22,986,2117.21,980.31,2120.61,969.32Z"/></g><path class="cls-29" d="M1738.94,784.61c0-.63,0-1.25.08-1.88.07-1.85.17-3.69.27-5.52l.09-1.41q.21-3.34.5-6.68c0-.53.1-1.06.14-1.59.16-1.77.33-3.54.52-5.3.07-.61.13-1.22.2-1.83.25-2.2.51-4.4.81-6.59,0-.23.07-.47.1-.71.27-2,.55-3.93.86-5.88.1-.65.2-1.29.31-1.94q.43-2.65.9-5.29l.24-1.32c.39-2.11.8-4.22,1.23-6.31l.39-1.82q.51-2.4,1.05-4.8c.15-.63.29-1.26.44-1.89.48-2.05,1-4.1,1.5-6.13l.36-1.38c.43-1.64.87-3.27,1.33-4.91.2-.69.39-1.39.59-2.09q.69-2.43,1.43-4.84l.42-1.39c.6-1.94,1.23-3.88,1.86-5.8.24-.72.48-1.43.73-2.13.46-1.37.93-2.74,1.42-4.1l.74-2.1c.68-1.85,1.37-3.71,2.08-5.55l.78-2c.52-1.31,1-2.6,1.57-3.9.32-.78.64-1.57,1-2.35.57-1.37,1.15-2.72,1.75-4.08.38-.88.78-1.77,1.17-2.65q.95-2.13,1.93-4.23l1.17-2.48c.52-1.08,1-2.16,1.58-3.24.39-.81.78-1.61,1.18-2.41.83-1.63,1.66-3.26,2.51-4.87.45-.85.9-1.69,1.36-2.53s1-1.91,1.55-2.86,1-1.79,1.49-2.67,1.13-2,1.71-3q1.21-2.12,2.47-4.18c.52-.87,1-1.74,1.57-2.6s1.16-1.88,1.76-2.81c.48-.76,1-1.53,1.46-2.29,1-1.58,2-3.16,3.1-4.72l1.5-2.23,2-2.92,1.35-1.91c.7-1,1.41-2,2.13-3,.36-.49.73-1,1.09-1.45q2.07-2.8,4.21-5.55l1.14-1.47,2.43-3,1.08-1.32q2.73-3.31,5.54-6.56l.06-.07c.92-1,1.84-2.09,2.78-3.13l1-1.09q4.47-4.93,9.15-9.65l.69-.7c1-1,2.09-2.08,3.14-3.1l.44-.42q5-4.83,10.2-9.4l.56-.48q5.25-4.59,10.72-8.91l.34-.26q7.54-6,15.47-11.35l.18-.12q5.91-4,12-7.76l.18-.1q8.25-5,16.86-9.43c-66.51,79.74-153.7,257-74.85,417.48,104.81,213.31,280.77,150.63,333.79,125.48a104.2,104.2,0,0,0-8.23,39.07l-.69,46.17-266.09-4,.65-43.4a105.09,105.09,0,0,0-2.78-25.56c-.22-.92-.45-1.83-.69-2.74-.48-1.82-1-3.63-1.59-5.41-.87-2.67-1.84-5.31-2.92-7.89a100.07,100.07,0,0,0-12.43-21.7q-1.66-2.22-3.46-4.34c-1.2-1.42-2.44-2.79-3.72-4.14-.63-.67-1.29-1.33-1.94-2-2-2-4-3.84-6.19-5.62a287.77,287.77,0,0,1-23.71-22.12c-.93-1-1.86-2-2.79-3q-2.77-3-5.46-6t-5.31-6.2q-3.91-4.71-7.64-9.6t-7.26-9.95q-2.36-3.36-4.63-6.81a302,302,0,0,1-20.36-36.11q-2.68-5.67-5.16-11.47-1.65-3.85-3.2-7.79c-1-2.61-2-5.25-3-7.89q-3.6-10-6.55-20.23a314.14,314.14,0,0,1-12-91.07C1738.79,789.16,1738.86,786.88,1738.94,784.61Z"/><path class="cls-24" d="M1888.07,1210.59l252.16,3.76a29,29,0,0,0,29.37-28.56h0a29,29,0,0,0-28.51-29.43l-252.15-3.76a29,29,0,0,0-29.37,28.57h0A29,29,0,0,0,1888.07,1210.59Z"/><path class="cls-30" d="M1888.18,1207.14l252,3.76a29,29,0,0,0,29.43-28.56h0a29,29,0,0,0-28.56-29.42L1889,1149.15a29,29,0,0,0-29.42,28.56h0A29,29,0,0,0,1888.18,1207.14Z"/><path class="cls-31" d="M2019.72,775.51c42.17,59.8,117.28,79.3,167.75,43.55s57.2-113.2,15-173-117.28-79.3-167.76-43.55S1977.54,715.71,2019.72,775.51Z"/><path class="cls-32" d="M2108.38,647.89c9,12.83,23.19,18.41,31.59,12.46s7.88-21.17-1.17-34-23.19-18.4-31.59-12.46S2099.33,635.06,2108.38,647.89Z"/><path class="cls-32" d="M2172.87,693.26c2.32,3.29,6.16,4.57,8.57,2.86s2.5-5.77.18-9.06-6.16-4.57-8.58-2.86S2170.54,690,2172.87,693.26Z"/><path class="cls-24" d="M1889,1149.15l103.6,1.55c-8,9.69-16.42,29,4.13,58.06l-108.59-1.62a29,29,0,0,1-28.51-29.42h0A29,29,0,0,1,1889,1149.15Z"/><rect class="cls-26" x="1966.38" y="364.29" width="114.75" height="31.09" transform="translate(1613.55 2397.65) rotate(-89.14)"/><rect class="cls-26" x="1594.91" y="852.09" width="31.16" height="114.52" transform="translate(677.06 2506) rotate(-89.14)"/><polygon class="cls-26" points="1615.14 478.89 1592.83 500.59 1672.58 582.93 1694.89 561.23 1615.14 478.89"/><rect class="cls-26" x="2378.02" y="866.95" width="31.15" height="114.51" transform="translate(1401.48 3290.47) rotate(-88.37)"/><polygon class="cls-26" points="2451.66 494.91 2473.01 517.56 2389.76 596.36 2368.41 573.71 2451.66 494.91"/><polygon class="cls-33" points="700.7 748.75 947.63 823.17 1372.73 823.17 1618.54 767.92 1159.62 643.89 700.7 748.75"/><path class="cls-34" d="M1372.73,927.84a810,810,0,0,1-425.1,0V773.51a477.43,477.43,0,0,1,425.1,0Z"/><path class="cls-35" d="M1372.73,934.8a815,815,0,0,1-425.1,0V781.45a480.11,480.11,0,0,1,425.1,0Z"/><path class="cls-36" d="M960.17,687.23a271,271,0,0,0-54.11-13.76c-18.46-2.66-37.36-3.47-55.45-.61a122.94,122.94,0,0,0-26,6.93,95.68,95.68,0,0,0-22.37,13c-6.81,5.1-12.2,11.51-17.11,18.08a90.68,90.68,0,0,0-6.39,10.47c-.92,1.82-2,3.56-2.8,5.44l-2.36,5.63c-1.73,3.64-2.75,7.81-4.12,11.71l-3.87,11.86-3,12.06A112.16,112.16,0,0,0,760,780.09l-2,12.16c-.61,4-.83,8.15-1.27,12.22l-.58,6.1c-.16,2-.13,4.09-.21,6.13-.07,4.08-.27,8.15-.24,12.23a241.27,241.27,0,0,0,5.67,48.39c.79,4,1.86,7.91,3,11.81s2.38,7.77,3.62,11.62,2.72,7.64,4.35,11.3c.78,1.86,1.57,3.7,2.43,5.46.43.89.84,1.82,1.28,2.64s.91,1.77,1.23,2.3c3.46,5.8,1,13-5.6,16s-14.66.85-18.13-5l-.36-.65-.08-.17c-.7-1.38-1.11-2.37-1.62-3.49s-.91-2.16-1.36-3.24c-.9-2.14-1.68-4.28-2.43-6.41-1.6-4.26-2.83-8.54-4.11-12.83-1.12-4.3-2.38-8.57-3.21-12.91s-1.86-8.63-2.47-13a258.67,258.67,0,0,1-3-52.23c.23-4.35.69-8.68,1-13,.21-2.16.31-4.33.6-6.49l1-6.45c.71-4.29,1.22-8.6,2.11-12.86l2.91-12.73A121.72,121.72,0,0,1,746,764.51L749.79,752l4.77-12.22c1.69-4.07,2.94-8.12,5.08-12.19l3-6.09c1-2,2.3-3.95,3.44-5.93a105.74,105.74,0,0,1,7.81-11.41c5.94-7.19,12.48-14.16,20.53-19.66a109.52,109.52,0,0,1,26-13.52,135.27,135.27,0,0,1,28.87-6.38c19.61-2.23,39.23-.47,58.08,3.06a274.46,274.46,0,0,1,54.54,16.44,1.64,1.64,0,0,1,.92,2.29,2.06,2.06,0,0,1-2.5.85Z"/><path class="cls-36" d="M784.11,945.23c-.77-12.58-4.45-19.75-10.43-21.58a15.26,15.26,0,0,0,2.47-15.17c-3.41-8.82-14.25-13.52-24.21-10.5s-15.27,12.61-11.86,21.43a17.88,17.88,0,0,0,10.66,10.08,16.83,16.83,0,0,0,4.43,17.16c7.9,7.53,2.79,34.09,9.27,35.8s36-5.75,37.79-12.91S785,959.31,784.11,945.23Z"/><path class="cls-37" d="M995.66,946.2c12.84,2.65,26.41,5.12,40.69,7.32V748.17c-14.83,4-28.45,8.33-40.69,12.79Z"/><path class="cls-37" d="M1043.75,954.62c2.92.42,5.82.85,8.79,1.24V744.16c-3,.68-5.92,1.35-8.79,2.07Z"/><path class="cls-38" d="M669,1615.89s4.16-23.76.14-38.85,19.75-25.61,3-43.68c0,0,.15,12.37-13.56,8,0,0,9.86-29-17.42-41.44,0,0,10.31,31.53-3.94,28.4s1.6-24.25-15.54-33.72-35-1.75-21.72,21.16,10.93,28-11.87,18.27c0,0-3.73,17.77,10.32,30.63S652.61,1617.07,669,1615.89Z"/><path class="cls-39" d="M663.33,1621.67s1.84-37.56,13.78-57.1-1.27-36.15-9.36-41.26,14.26-62.59.11-63.76-37.21-2.53-27.7,35.41,16.33,33.52,12.11,70.33S650.51,1618.94,663.33,1621.67Z"/><path class="cls-38" d="M653.66,1619.27s25.17-26.91,34.3-72,44.57-15,32.59,10.12S695.44,1620.16,653.66,1619.27Z"/><rect class="cls-40" x="605.06" y="1603.41" width="117.48" height="29.02" rx="1.86" transform="translate(1327.59 3235.84) rotate(180)"/><polygon class="cls-40" points="695 1701.84 710.71 1632.43 616.88 1632.43 634.55 1701.84 695 1701.84"/><path class="cls-41" d="M641.71,1697.29c8.71,1.71,52,4.83,52,4.83H634.55l-17.67-69.41h73.61s-66.21,4-64.21,9.39S633,1695.58,641.71,1697.29Z"/><rect class="cls-42" x="1937.44" y="1562.66" width="26.09" height="113.53" transform="translate(-88.85 3125.43) rotate(-76.15)"/><path class="cls-43" d="M1758.09,1675.43a104.42,104.42,0,1,0-76.38-126.38A104.42,104.42,0,0,0,1758.09,1675.43Z"/><path class="cls-44" d="M1753.07,1695.78a125.37,125.37,0,1,0-91.7-151.75A125.37,125.37,0,0,0,1753.07,1695.78Zm5-20.35a104.42,104.42,0,1,1,126.38-76.38A104.42,104.42,0,0,1,1758.09,1675.43Z"/><path class="cls-44" d="M1959.33,1629.8l3.81-15.44c2.48-10.07,14.41-15.79,26.65-12.78L2173,1646.75c12.24,3,20.14,13.63,17.66,23.71l-3.81,15.43c-2.48,10.08-14.42,15.8-26.65,12.78L1977,1653.5C1964.75,1650.48,1956.85,1639.87,1959.33,1629.8Z"/><path class="cls-45" d="M1725.84,1612a32.68,32.68,0,1,0-9-45.32A32.67,32.67,0,0,0,1725.84,1612Z"/><path class="cls-45" d="M1770.94,1652a11.61,11.61,0,1,0-3.21-16.11A11.6,11.6,0,0,0,1770.94,1652Z"/></svg>